%FSLAX25Y25*%
%MOIN*%
G70*
G01*
G75*
G04 Layer_Physical_Order=1*
G04 Layer_Color=255*
%ADD10R,0.20000X0.20000*%
%ADD11R,0.31200X0.31200*%
%ADD12R,0.03543X0.03150*%
%ADD13R,0.08268X0.05512*%
%ADD14R,0.02165X0.06693*%
%ADD15R,0.06693X0.02165*%
%ADD16C,0.01969*%
%ADD17O,0.07087X0.06299*%
%ADD18O,0.05906X0.07087*%
%ADD19C,0.19685*%
%ADD20C,0.07000*%
%ADD21R,0.07000X0.07000*%
%ADD22C,0.01969*%
G36*
X51842Y98425D02*
X51954Y97577D01*
X52281Y96787D01*
X52802Y96109D01*
X53480Y95588D01*
X54270Y95261D01*
X55118Y95149D01*
X66095D01*
X66326Y93194D01*
X65542Y93006D01*
X63967Y92354D01*
X62514Y91463D01*
X61218Y90356D01*
X60111Y89061D01*
X59221Y87608D01*
X58569Y86033D01*
X58171Y84376D01*
X58076Y83169D01*
X68898D01*
Y82677D01*
X69390D01*
Y71856D01*
X70597Y71951D01*
X72254Y72348D01*
X73828Y73001D01*
X75281Y73891D01*
X75645Y74202D01*
X77433Y73378D01*
Y67716D01*
X63976D01*
Y56299D01*
X77433D01*
Y48031D01*
X77433D01*
X76181D01*
X76041Y48031D01*
X76041Y48031D01*
X76041Y48031D01*
X71555D01*
Y44291D01*
Y40551D01*
X76041D01*
X76041Y40551D01*
X76041Y40551D01*
X76181Y40551D01*
X77433Y39300D01*
Y-25949D01*
X75508D01*
Y-25949D01*
X71516D01*
Y-30433D01*
X70531D01*
Y-25949D01*
X66539D01*
Y-25949D01*
X66386D01*
X64995Y-24557D01*
Y-23622D01*
X64859Y-22594D01*
X64463Y-21637D01*
X63832Y-20814D01*
X63832Y-20814D01*
X61863Y-18846D01*
X61041Y-18215D01*
X60083Y-17818D01*
X59055Y-17683D01*
X57121D01*
Y-15551D01*
X57874D01*
Y-9252D01*
Y-197D01*
X57121D01*
Y70866D01*
X56985Y71894D01*
X56589Y72852D01*
X55958Y73674D01*
X26430Y103202D01*
X25607Y103833D01*
X24650Y104229D01*
X23622Y104365D01*
X7749D01*
X7186Y105723D01*
X7014Y106229D01*
X7808Y106838D01*
X8439Y107660D01*
X8836Y108618D01*
X8971Y109646D01*
Y109744D01*
X5000D01*
Y110236D01*
X4508D01*
Y114733D01*
X3972Y114662D01*
X3015Y114266D01*
X2192Y113635D01*
X2174Y113611D01*
X1984Y113553D01*
X159Y113703D01*
X-66Y114124D01*
X-804Y115023D01*
X-1703Y115761D01*
X-2729Y116309D01*
X-3842Y116647D01*
X-5000Y116761D01*
X-6158Y116647D01*
X-7271Y116309D01*
X-8297Y115761D01*
X-9196Y115023D01*
X-9934Y114124D01*
X-10482Y113098D01*
X-10820Y111984D01*
X-10934Y110827D01*
Y109646D01*
X-10820Y108488D01*
X-10482Y107375D01*
X-9934Y106349D01*
X-9196Y105450D01*
X-8952Y105249D01*
X-8836Y104366D01*
X-8439Y103408D01*
X-7808Y102586D01*
X-2808Y97586D01*
X-2808D01*
X-2808Y97586D01*
X-2808Y97586D01*
Y97586D01*
X-1986Y96955D01*
X-1028Y96558D01*
X-908Y96542D01*
X0Y96423D01*
X0Y96423D01*
X21977D01*
X23274Y95126D01*
X22521Y93307D01*
X10827D01*
Y81890D01*
X25000D01*
Y82125D01*
X25591Y82643D01*
X26618Y82779D01*
X27576Y83175D01*
X28398Y83806D01*
X29030Y84629D01*
X29426Y85586D01*
X29530Y86373D01*
X30669Y86760D01*
X31527Y86873D01*
X49179Y69221D01*
Y-197D01*
X48425D01*
Y-9252D01*
Y-15551D01*
X49179D01*
Y-17683D01*
X43307D01*
X42279Y-17818D01*
X41322Y-18215D01*
X40499Y-18846D01*
X40499Y-18846D01*
X34576Y-24769D01*
X30512D01*
Y-24705D01*
Y-23327D01*
Y-20177D01*
Y-17028D01*
Y-13878D01*
Y-5807D01*
X28543D01*
Y-4626D01*
X27184D01*
X26430Y-2807D01*
X28398Y-839D01*
X28398Y-839D01*
X29030Y-17D01*
X29426Y941D01*
X29561Y1969D01*
X29426Y2996D01*
X29030Y3954D01*
X28398Y4776D01*
X27576Y5407D01*
X26618Y5804D01*
X25591Y5940D01*
X24563Y5804D01*
X23605Y5407D01*
X22956Y4910D01*
X22933Y4921D01*
Y4921D01*
X22933Y4921D01*
X20558D01*
X19464Y6558D01*
X19584Y6846D01*
X19599Y6966D01*
X19719Y7874D01*
X19584Y8902D01*
X19383Y9387D01*
X20237Y10665D01*
X20704Y11024D01*
X23031D01*
Y14272D01*
X17913D01*
Y14764D01*
X17421D01*
Y18504D01*
X12795D01*
Y15078D01*
X11513Y14547D01*
X9877Y15640D01*
Y26772D01*
X9877D01*
X10827D01*
X11268Y26772D01*
X11268Y26772D01*
X11268Y26772D01*
X25000D01*
Y38189D01*
X11268D01*
X11268Y38189D01*
X11268Y38189D01*
X10827Y38189D01*
X9877Y39139D01*
Y49143D01*
X18771Y58037D01*
X28150D01*
Y56299D01*
X42323D01*
Y67716D01*
X28150D01*
Y65979D01*
X23031D01*
Y65979D01*
Y66142D01*
X23031Y67371D01*
X23031Y67371D01*
X23031Y67371D01*
Y69390D01*
X12795D01*
Y66142D01*
X13072D01*
X13825Y64323D01*
X3098Y53595D01*
X2466Y52773D01*
X2070Y51815D01*
X1935Y50787D01*
Y41686D01*
X116Y40933D01*
X-23274Y64323D01*
X-23151Y64621D01*
X-23151Y64621D01*
X-22988Y65014D01*
X-22988D01*
X-22931Y65151D01*
X-22521Y66142D01*
X-21291Y66142D01*
D01*
X-18406D01*
Y69390D01*
X-23031D01*
Y67477D01*
D01*
X-23487Y66883D01*
D01*
X-24455Y65622D01*
D01*
X-24644Y65496D01*
X-24668Y65479D01*
Y65480D01*
X-24668Y65479D01*
X-25547Y65844D01*
X-26575Y65979D01*
X-28150D01*
Y67716D01*
X-42323D01*
Y56299D01*
X-28150D01*
X-28150Y56299D01*
Y56299D01*
X-26970Y56788D01*
X-10190Y40008D01*
X-10944Y38189D01*
X-25000D01*
Y26772D01*
X-10827D01*
X-10827Y26772D01*
Y26772D01*
X-10761Y26799D01*
X-9877Y25914D01*
Y13780D01*
X-9877Y13780D01*
X-9877D01*
X-9741Y12752D01*
X-9345Y11794D01*
X-8713Y10972D01*
X-4482Y6740D01*
X-5235Y4921D01*
X-7185D01*
Y2593D01*
X-15157D01*
X-15157Y2593D01*
X-16066Y2473D01*
X-16185Y2458D01*
X-17143Y2061D01*
X-17965Y1430D01*
X-17965Y1430D01*
X-24991Y-5596D01*
X-30404D01*
X-30703Y-5231D01*
X-31633Y-4468D01*
X-32693Y-3902D01*
X-32091Y-2515D01*
X-32091Y-2515D01*
X-32091D01*
X-31429Y-1652D01*
X-31012Y-646D01*
X-30935Y-59D01*
X-39931D01*
X-39854Y-646D01*
X-39438Y-1652D01*
X-38775Y-2515D01*
X-38775Y-2515D01*
X-38775D01*
X-38173Y-3902D01*
X-39233Y-4468D01*
X-40163Y-5231D01*
X-40925Y-6160D01*
X-41492Y-7220D01*
X-41841Y-8371D01*
X-41959Y-9567D01*
X-41841Y-10763D01*
X-41492Y-11913D01*
X-40925Y-12974D01*
X-40163Y-13903D01*
X-39233Y-14665D01*
X-38173Y-15232D01*
X-38173Y-15232D01*
X-38775Y-16619D01*
X-38775Y-16619D01*
X-38775D01*
X-39438Y-17482D01*
X-39854Y-18488D01*
X-39931Y-19075D01*
X-30935D01*
X-31012Y-18488D01*
X-31429Y-17482D01*
X-32091Y-16619D01*
X-32091Y-16619D01*
X-32091D01*
X-32693Y-15232D01*
X-32693D01*
Y-15232D01*
X-31633Y-14665D01*
X-30703Y-13903D01*
X-30404Y-13538D01*
X-23346D01*
X-22319Y-13403D01*
X-21361Y-13006D01*
X-20538Y-12375D01*
X-16582Y-8419D01*
X-14764Y-9172D01*
Y-12248D01*
X-15201Y-12306D01*
X-16159Y-12703D01*
X-16981Y-13334D01*
X-17612Y-14156D01*
X-18009Y-15114D01*
X-18144Y-16142D01*
X-18009Y-17169D01*
X-17612Y-18127D01*
X-16981Y-18950D01*
X-16159Y-19581D01*
X-15201Y-19977D01*
X-14764Y-20035D01*
X-14764Y-20035D01*
X-14764D01*
D01*
Y-23327D01*
Y-26476D01*
X-12795D01*
Y-27657D01*
Y-28248D01*
X-8465D01*
Y-28740D01*
X-7972D01*
Y-30807D01*
X-7185D01*
Y-37368D01*
X-25126D01*
X-26272Y-35767D01*
X-25958Y-34843D01*
X-16929D01*
Y-25787D01*
X-18898D01*
Y-25295D01*
X-21654D01*
Y-24803D01*
X-22146D01*
Y-22244D01*
X-24409D01*
Y-24659D01*
X-26046Y-25753D01*
X-26098Y-25731D01*
X-27126Y-25596D01*
X-30404D01*
X-30703Y-25231D01*
X-31633Y-24468D01*
X-32693Y-23902D01*
X-32091Y-22515D01*
X-32091Y-22515D01*
X-32091D01*
X-31429Y-21652D01*
X-31012Y-20646D01*
X-30935Y-20059D01*
X-39931D01*
X-39854Y-20646D01*
X-39438Y-21652D01*
X-38775Y-22515D01*
X-38775Y-22515D01*
X-38775D01*
X-38173Y-23902D01*
X-39233Y-24468D01*
X-40163Y-25231D01*
X-40925Y-26160D01*
X-41492Y-27220D01*
X-41841Y-28371D01*
X-41959Y-29567D01*
X-41841Y-30763D01*
X-41492Y-31914D01*
X-40925Y-32974D01*
X-40234Y-33816D01*
X-40426Y-34224D01*
X-41552Y-35596D01*
X-51378D01*
X-51378Y-35596D01*
X-52286Y-35715D01*
X-52406Y-35731D01*
X-53363Y-36128D01*
X-54186Y-36759D01*
X-54186Y-36759D01*
X-63308Y-45881D01*
X-63939Y-46703D01*
X-64336Y-47661D01*
X-64471Y-48689D01*
Y-73583D01*
X-75000D01*
Y-103583D01*
X-75000D01*
Y-104169D01*
X-76658Y-105231D01*
X-77433Y-104874D01*
Y40551D01*
X-77433D01*
X-76181D01*
X-76041Y40551D01*
X-76041Y40551D01*
X-76041Y40551D01*
X-71555D01*
Y44291D01*
Y48031D01*
X-76041D01*
X-76041Y48031D01*
X-76041Y48031D01*
X-76181Y48031D01*
X-77433Y49283D01*
Y56299D01*
X-63976D01*
Y67716D01*
X-77433D01*
Y73378D01*
X-75645Y74202D01*
X-75281Y73891D01*
X-73828Y73001D01*
X-72254Y72348D01*
X-70597Y71951D01*
X-69390Y71856D01*
Y82677D01*
X-68898D01*
Y83169D01*
X-58076D01*
X-58171Y84376D01*
X-58569Y86033D01*
X-59221Y87608D01*
X-60111Y89061D01*
X-61218Y90356D01*
X-62514Y91463D01*
X-63967Y92354D01*
X-65542Y93006D01*
X-66326Y93194D01*
X-66095Y95149D01*
X-55118D01*
X-54270Y95261D01*
X-53480Y95588D01*
X-52802Y96109D01*
X-52281Y96787D01*
X-51954Y97577D01*
X-51842Y98425D01*
Y134519D01*
X51842D01*
Y98425D01*
D02*
G37*
G36*
X-40163Y-43903D02*
X-39233Y-44665D01*
X-38173Y-45232D01*
X-37023Y-45581D01*
X-35827Y-45699D01*
X-35039D01*
X-33843Y-45581D01*
X-32693Y-45232D01*
X-31633Y-44665D01*
X-30703Y-43903D01*
X-30615Y-43898D01*
X-30367Y-44146D01*
X-29544Y-44778D01*
X-28587Y-45174D01*
X-27559Y-45310D01*
X7480D01*
X8508Y-45174D01*
X9466Y-44778D01*
X10007Y-44363D01*
X13727Y-48083D01*
X13727Y-48083D01*
X13727D01*
X13727Y-48083D01*
X13727D01*
X13727Y-48083D01*
Y-48083D01*
Y-48083D01*
D01*
D01*
X13727D01*
Y-48083D01*
X14550Y-48715D01*
X15508Y-49111D01*
X15627Y-49127D01*
X16535Y-49247D01*
X16535Y-49247D01*
X41662D01*
X42468Y-50052D01*
X43290Y-50683D01*
X44248Y-51080D01*
X45276Y-51215D01*
X58707D01*
X59461Y-53034D01*
X57692Y-54802D01*
X57061Y-55625D01*
X56664Y-56582D01*
X56529Y-57610D01*
Y-73582D01*
X32500D01*
Y-103582D01*
X61408D01*
X62351Y-105121D01*
X62465Y-105429D01*
X61218Y-106494D01*
X60111Y-107790D01*
X59221Y-109243D01*
X58569Y-110817D01*
X58171Y-112474D01*
X58076Y-113681D01*
X68898D01*
Y-114665D01*
X58076D01*
X58171Y-115872D01*
X58569Y-117529D01*
X59221Y-119104D01*
X60111Y-120557D01*
X61218Y-121853D01*
X62514Y-122959D01*
X63967Y-123850D01*
X65542Y-124502D01*
X66326Y-124690D01*
X66095Y-126645D01*
X55118D01*
X54270Y-126757D01*
X53480Y-127084D01*
X52802Y-127605D01*
X52281Y-128283D01*
X51954Y-129073D01*
X51842Y-129921D01*
Y-134519D01*
X-51842D01*
Y-129921D01*
X-51954Y-129073D01*
X-52281Y-128283D01*
X-52802Y-127605D01*
X-53480Y-127084D01*
X-54270Y-126757D01*
X-55118Y-126645D01*
X-66095D01*
X-66326Y-124690D01*
X-65542Y-124502D01*
X-63967Y-123850D01*
X-62514Y-122959D01*
X-61218Y-121853D01*
X-60111Y-120557D01*
X-59221Y-119104D01*
X-58569Y-117529D01*
X-58171Y-115872D01*
X-58076Y-114665D01*
X-68898D01*
Y-113681D01*
X-58076D01*
X-58171Y-112474D01*
X-58569Y-110817D01*
X-59221Y-109243D01*
X-60111Y-107790D01*
X-61218Y-106494D01*
X-62464Y-105429D01*
X-62350Y-105119D01*
X-61408Y-103583D01*
X-32500D01*
Y-73583D01*
X-56529D01*
Y-50334D01*
X-49733Y-43538D01*
X-40462D01*
X-40163Y-43903D01*
D02*
G37*
%LPC*%
G36*
X-35728Y43799D02*
X-40354D01*
Y40551D01*
X-35728D01*
Y43799D01*
D02*
G37*
G36*
X-65945D02*
X-70571D01*
Y40551D01*
X-65945D01*
Y43799D01*
D02*
G37*
G36*
X-30118D02*
X-34744D01*
Y40551D01*
X-30118D01*
Y43799D01*
D02*
G37*
G36*
X70571D02*
X65945D01*
Y40551D01*
X70571D01*
Y43799D01*
D02*
G37*
G36*
X40354D02*
X35728D01*
Y40551D01*
X40354D01*
Y43799D01*
D02*
G37*
G36*
X34744D02*
X30118D01*
Y40551D01*
X34744D01*
Y43799D01*
D02*
G37*
G36*
X23031Y18504D02*
X18406D01*
Y15256D01*
X23031D01*
Y18504D01*
D02*
G37*
G36*
X-35039Y16565D02*
X-35827D01*
X-37023Y16447D01*
X-38173Y16098D01*
X-39233Y15531D01*
X-40163Y14769D01*
X-40925Y13840D01*
X-41492Y12780D01*
X-41841Y11629D01*
X-41959Y10433D01*
X-41841Y9237D01*
X-41492Y8087D01*
X-40925Y7026D01*
X-40163Y6097D01*
X-39233Y5335D01*
X-38173Y4768D01*
X-38173Y4768D01*
X-38775Y3381D01*
X-38775Y3381D01*
X-38775D01*
X-39438Y2518D01*
X-39854Y1512D01*
X-39931Y925D01*
X-30935D01*
X-31012Y1512D01*
X-31429Y2518D01*
X-32091Y3381D01*
X-32091Y3381D01*
X-32091D01*
X-32693Y4768D01*
X-32693D01*
Y4768D01*
X-31633Y5335D01*
X-30703Y6097D01*
X-29941Y7026D01*
X-29374Y8087D01*
X-29025Y9237D01*
X-28907Y10433D01*
X-29025Y11629D01*
X-29374Y12780D01*
X-29941Y13840D01*
X-30703Y14769D01*
X-31633Y15531D01*
X-32693Y16098D01*
X-33843Y16447D01*
X-35039Y16565D01*
D02*
G37*
G36*
X-18898Y-22244D02*
X-21161D01*
Y-24311D01*
X-18898D01*
Y-22244D01*
D02*
G37*
G36*
X-8957Y-29232D02*
X-12795D01*
Y-30807D01*
X-8957D01*
Y-29232D01*
D02*
G37*
G36*
X-18406Y14272D02*
X-23031D01*
Y11024D01*
X-18406D01*
Y14272D01*
D02*
G37*
G36*
X-12795Y18504D02*
X-17421D01*
Y15256D01*
X-12795D01*
Y18504D01*
D02*
G37*
G36*
X-18406D02*
X-23031D01*
Y15256D01*
X-18406D01*
Y18504D01*
D02*
G37*
G36*
X-12795Y14272D02*
X-17421D01*
Y11024D01*
X-12795D01*
Y14272D01*
D02*
G37*
G36*
X23031Y73622D02*
X18406D01*
Y70374D01*
X23031D01*
Y73622D01*
D02*
G37*
G36*
X17421D02*
X12795D01*
Y70374D01*
X17421D01*
Y73622D01*
D02*
G37*
G36*
X-12795D02*
X-17421D01*
Y70374D01*
X-12795D01*
Y73622D01*
D02*
G37*
G36*
X-58076Y82185D02*
X-68405D01*
Y71856D01*
X-67199Y71951D01*
X-65542Y72348D01*
X-63967Y73001D01*
X-62514Y73891D01*
X-61218Y74998D01*
X-60111Y76294D01*
X-59221Y77747D01*
X-58569Y79321D01*
X-58171Y80978D01*
X-58076Y82185D01*
D02*
G37*
G36*
X5492Y114733D02*
Y110728D01*
X8971D01*
Y110827D01*
X8836Y111855D01*
X8439Y112812D01*
X7808Y113635D01*
X6985Y114266D01*
X6028Y114662D01*
X5492Y114733D01*
D02*
G37*
G36*
X-10827Y93307D02*
X-25000D01*
Y81890D01*
X-10827D01*
Y93307D01*
D02*
G37*
G36*
X68405Y82185D02*
X58076D01*
X58171Y80978D01*
X58569Y79321D01*
X59221Y77747D01*
X60111Y76294D01*
X61218Y74998D01*
X62514Y73891D01*
X63967Y73001D01*
X65542Y72348D01*
X67199Y71951D01*
X68405Y71856D01*
Y82185D01*
D02*
G37*
G36*
X-18406Y73622D02*
X-23031D01*
Y70374D01*
X-18406D01*
Y73622D01*
D02*
G37*
G36*
X-30118Y48031D02*
X-34744D01*
Y44783D01*
X-30118D01*
Y48031D01*
D02*
G37*
G36*
X-35728D02*
X-40354D01*
Y44783D01*
X-35728D01*
Y48031D01*
D02*
G37*
G36*
X-65945D02*
X-70571D01*
Y44783D01*
X-65945D01*
Y48031D01*
D02*
G37*
G36*
X34744D02*
X30118D01*
Y44783D01*
X34744D01*
Y48031D01*
D02*
G37*
G36*
X-12795Y69390D02*
X-17421D01*
Y66142D01*
X-12795D01*
Y69390D01*
D02*
G37*
G36*
X70571Y48031D02*
X65945D01*
Y44783D01*
X70571D01*
Y48031D01*
D02*
G37*
G36*
X40354D02*
X35728D01*
Y44783D01*
X40354D01*
Y48031D01*
D02*
G37*
%LPD*%
D10*
X-60500Y-88583D02*
D03*
X60500D02*
D03*
D11*
X0D02*
D03*
D12*
X53150Y-4724D02*
D03*
Y-11024D02*
D03*
X-21654Y-24803D02*
D03*
Y-30315D02*
D03*
D13*
X17913Y69882D02*
D03*
X-17913D02*
D03*
X17913Y87598D02*
D03*
X-17913D02*
D03*
X-35236Y44291D02*
D03*
X-71063D02*
D03*
X-35236Y62008D02*
D03*
X-71063D02*
D03*
X71063Y44291D02*
D03*
X35236D02*
D03*
X71063Y62008D02*
D03*
X35236D02*
D03*
X17913Y14764D02*
D03*
X-17913D02*
D03*
X17913Y32480D02*
D03*
X-17913D02*
D03*
D14*
X-3150Y-34055D02*
D03*
X0D02*
D03*
X3150D02*
D03*
X6299D02*
D03*
X9449D02*
D03*
X12598D02*
D03*
X15748D02*
D03*
X18898D02*
D03*
Y-1378D02*
D03*
X15748D02*
D03*
X12598D02*
D03*
X9449D02*
D03*
X6299D02*
D03*
X3150D02*
D03*
X0D02*
D03*
X-3150D02*
D03*
D15*
X24213Y-28740D02*
D03*
Y-25591D02*
D03*
Y-22441D02*
D03*
Y-19291D02*
D03*
Y-16142D02*
D03*
Y-12992D02*
D03*
Y-9843D02*
D03*
Y-6693D02*
D03*
X-8465D02*
D03*
Y-9843D02*
D03*
Y-12992D02*
D03*
Y-16142D02*
D03*
Y-19291D02*
D03*
Y-22441D02*
D03*
Y-25591D02*
D03*
Y-28740D02*
D03*
D16*
X0Y100394D02*
X23622D01*
X-35236Y62008D02*
X-26575D01*
X-5000Y105394D02*
Y110236D01*
X-60500Y-88583D02*
Y-48689D01*
X-51378Y-39567D01*
X-35433D01*
X-5000Y105394D02*
X0Y100394D01*
X40748Y-34055D02*
X44370Y-30433D01*
X51024D01*
X15748Y-39370D02*
Y-34055D01*
Y-39370D02*
X17717Y-41339D01*
X50118D02*
X51024Y-40433D01*
X43307Y-45276D02*
X45276Y-47244D01*
X59449D01*
X61024Y-45669D01*
Y-40433D01*
X71024Y-47087D02*
Y-40433D01*
X60500Y-57610D02*
X71024Y-47087D01*
X60500Y-88583D02*
Y-57610D01*
X6299Y-34055D02*
Y-25984D01*
X3937Y-23622D02*
X6299Y-25984D01*
X-8465Y-28740D02*
Y-25591D01*
X-21654Y-24803D02*
X-16535D01*
X-15748Y-25591D01*
X-8465D01*
X-3150Y-41339D02*
Y-34055D01*
X-35433Y-39567D02*
X-29331D01*
X-27559Y-41339D01*
X7480D02*
X9449Y-39370D01*
Y-34055D01*
X12598Y-41339D02*
Y-34055D01*
Y-41339D02*
X16535Y-45276D01*
X-15157Y-1378D02*
X-3150D01*
X-23346Y-9567D02*
X-15157Y-1378D01*
X-17913Y32480D02*
X-10827D01*
X-26575Y62008D02*
X0Y35433D01*
X-10827Y32480D02*
X-5906Y27559D01*
X0Y-9843D02*
Y-1378D01*
Y-9843D02*
X1969Y-11811D01*
X3150Y-1378D02*
Y4724D01*
X6299Y-1378D02*
Y6693D01*
X-35433Y-9567D02*
X-23346D01*
X-26378Y-30315D02*
X-21654D01*
X-26378Y-30315D02*
X-26378Y-30315D01*
X-27126Y-29567D02*
X-26378Y-30315D01*
X-35433Y-29567D02*
X-27126D01*
X-27559Y-41339D02*
X-3150D01*
X18898Y-34055D02*
X40748D01*
X24213Y-28740D02*
X36220D01*
X43307Y-21654D01*
X17717Y-41339D02*
X37402D01*
X38307Y-40433D01*
X51024D01*
X16535Y-45276D02*
X43307D01*
X0Y12992D02*
X6299Y6693D01*
X0Y12992D02*
Y35433D01*
X-5906Y13780D02*
X3150Y4724D01*
X-5906Y13780D02*
Y27559D01*
X9449Y-1378D02*
Y10236D01*
X5906Y13780D02*
X9449Y10236D01*
X5906Y13780D02*
Y50787D01*
X17126Y62008D01*
X35236D01*
X12598Y-1378D02*
Y4724D01*
X15748Y7874D01*
X17913Y87598D02*
X24606D01*
X25591Y86614D01*
X23622Y100394D02*
X53150Y70866D01*
Y-4724D02*
Y70866D01*
X18898Y-1378D02*
X22244D01*
X25591Y1969D01*
X-3150Y-41339D02*
X3937D01*
X7480D01*
X24213Y-6693D02*
X28740D01*
X33465Y-1969D01*
Y9843D01*
X28543Y14764D02*
X33465Y9843D01*
X17913Y14764D02*
X28543D01*
X53150Y-21654D02*
Y-11024D01*
X43307Y-21654D02*
X53150D01*
X59055D01*
X61024Y-23622D01*
Y-30433D02*
Y-23622D01*
D17*
X-35433Y-19567D02*
D03*
Y-29567D02*
D03*
Y-9567D02*
D03*
Y433D02*
D03*
Y10433D02*
D03*
Y-39567D02*
D03*
D18*
X-5000Y110236D02*
D03*
X5000D02*
D03*
D19*
X-68898Y-114173D02*
D03*
X68898D02*
D03*
Y82677D02*
D03*
X-68898D02*
D03*
D20*
X51024Y-30433D02*
D03*
X61024D02*
D03*
X71024Y-40433D02*
D03*
X61024D02*
D03*
X51024D02*
D03*
D21*
X71024Y-30433D02*
D03*
D22*
X3937Y-23622D02*
D03*
X-14173Y-16142D02*
D03*
X-26378Y-30315D02*
D03*
X1969Y-11811D02*
D03*
X15748Y7874D02*
D03*
X25591Y86614D02*
D03*
Y1969D02*
D03*
X3937Y-41339D02*
D03*
M02*
