%FSLAX25Y25*%
%MOIN*%
G70*
G01*
G75*
G04 Layer_Physical_Order=2*
G04 Layer_Color=16711680*
%ADD10R,0.20000X0.20000*%
%ADD11R,0.31200X0.31200*%
%ADD12R,0.03543X0.03150*%
%ADD13R,0.08268X0.05512*%
%ADD14R,0.02165X0.06693*%
%ADD15R,0.06693X0.02165*%
%ADD16C,0.01969*%
%ADD17O,0.07087X0.06299*%
%ADD18O,0.05906X0.07087*%
%ADD19C,0.19685*%
%ADD20C,0.07000*%
%ADD21R,0.07000X0.07000*%
%ADD22C,0.01969*%
G36*
X51842Y98425D02*
X51954Y97577D01*
X52281Y96787D01*
X52802Y96109D01*
X53480Y95588D01*
X54270Y95261D01*
X55118Y95149D01*
X66095D01*
X66326Y93194D01*
X65542Y93006D01*
X63967Y92354D01*
X62514Y91463D01*
X61218Y90356D01*
X60111Y89061D01*
X59221Y87608D01*
X58569Y86033D01*
X58171Y84376D01*
X58076Y83169D01*
X68898D01*
Y82677D01*
X69390D01*
Y71856D01*
X70597Y71951D01*
X72254Y72348D01*
X73828Y73001D01*
X75281Y73891D01*
X75645Y74202D01*
X77433Y73378D01*
Y-25949D01*
X75508D01*
Y-25949D01*
X71516D01*
Y-30433D01*
X70531D01*
Y-25949D01*
X66539D01*
Y-25949D01*
X65691Y-25949D01*
X65609Y-25848D01*
X64626Y-25042D01*
X63505Y-24443D01*
X62289Y-24074D01*
X61024Y-23949D01*
X59759Y-24074D01*
X58542Y-24443D01*
X57421Y-25042D01*
X56439Y-25848D01*
X55608D01*
X54626Y-25042D01*
X53505Y-24443D01*
X52289Y-24074D01*
X51024Y-23949D01*
X49759Y-24074D01*
X48542Y-24443D01*
X47421Y-25042D01*
X46439Y-25848D01*
X45632Y-26831D01*
X45033Y-27952D01*
X44664Y-29168D01*
X44540Y-30433D01*
X44664Y-31698D01*
X45033Y-32914D01*
X45632Y-34035D01*
X46439Y-35018D01*
Y-35848D01*
X45632Y-36831D01*
X45033Y-37952D01*
X44664Y-39168D01*
X44540Y-40433D01*
X44664Y-41698D01*
X45033Y-42914D01*
X45632Y-44035D01*
X46439Y-45018D01*
X47421Y-45824D01*
X48542Y-46424D01*
X49759Y-46793D01*
X51024Y-46917D01*
X52289Y-46793D01*
X53505Y-46424D01*
X54626Y-45824D01*
X55608Y-45018D01*
X56439D01*
X57421Y-45824D01*
X58542Y-46424D01*
X59759Y-46793D01*
X61024Y-46917D01*
X62289Y-46793D01*
X63505Y-46424D01*
X64626Y-45824D01*
X65609Y-45018D01*
X66439D01*
X67421Y-45824D01*
X68542Y-46424D01*
X69759Y-46793D01*
X71024Y-46917D01*
X72289Y-46793D01*
X73505Y-46424D01*
X74626Y-45824D01*
X75608Y-45018D01*
X77433Y-46515D01*
Y-104874D01*
X75645Y-105698D01*
X75281Y-105387D01*
X73828Y-104497D01*
X72254Y-103844D01*
X70597Y-103447D01*
X69390Y-103352D01*
Y-114173D01*
X68898D01*
Y-114665D01*
X58076D01*
X58171Y-115872D01*
X58569Y-117529D01*
X59221Y-119104D01*
X60111Y-120557D01*
X61218Y-121853D01*
X62514Y-122959D01*
X63967Y-123850D01*
X65542Y-124502D01*
X66326Y-124690D01*
X66095Y-126645D01*
X55118D01*
X54270Y-126757D01*
X53480Y-127084D01*
X52802Y-127605D01*
X52281Y-128283D01*
X51954Y-129073D01*
X51842Y-129921D01*
Y-134519D01*
X-51842D01*
Y-129921D01*
X-51954Y-129073D01*
X-52281Y-128283D01*
X-52802Y-127605D01*
X-53480Y-127084D01*
X-54270Y-126757D01*
X-55118Y-126645D01*
X-66095D01*
X-66326Y-124690D01*
X-65542Y-124502D01*
X-63967Y-123850D01*
X-62514Y-122959D01*
X-61218Y-121853D01*
X-60111Y-120557D01*
X-59221Y-119104D01*
X-58569Y-117529D01*
X-58171Y-115872D01*
X-58076Y-114665D01*
X-68898D01*
Y-114173D01*
X-69390D01*
Y-103352D01*
X-70597Y-103447D01*
X-72254Y-103844D01*
X-73828Y-104497D01*
X-75281Y-105387D01*
X-75645Y-105698D01*
X-77433Y-104874D01*
Y73378D01*
X-75645Y74202D01*
X-75281Y73891D01*
X-73828Y73001D01*
X-72254Y72348D01*
X-70597Y71951D01*
X-69390Y71856D01*
Y82677D01*
X-68898D01*
Y83169D01*
X-58076D01*
X-58171Y84376D01*
X-58569Y86033D01*
X-59221Y87608D01*
X-60111Y89061D01*
X-61218Y90356D01*
X-62514Y91463D01*
X-63967Y92354D01*
X-65542Y93006D01*
X-66326Y93194D01*
X-66095Y95149D01*
X-55118D01*
X-54270Y95261D01*
X-53480Y95588D01*
X-52802Y96109D01*
X-52281Y96787D01*
X-51954Y97577D01*
X-51842Y98425D01*
Y134519D01*
X51842D01*
Y98425D01*
D02*
G37*
%LPC*%
G36*
X-30935Y-59D02*
X-39931D01*
X-39854Y-646D01*
X-39438Y-1652D01*
X-38775Y-2515D01*
X-38775Y-2515D01*
X-38775D01*
X-38173Y-3902D01*
X-39233Y-4468D01*
X-40163Y-5231D01*
X-40925Y-6160D01*
X-41492Y-7220D01*
X-41841Y-8371D01*
X-41959Y-9567D01*
X-41841Y-10763D01*
X-41492Y-11913D01*
X-40925Y-12974D01*
X-40163Y-13903D01*
X-39233Y-14665D01*
X-38173Y-15232D01*
X-38173Y-15232D01*
X-38775Y-16619D01*
X-38775Y-16619D01*
X-38775D01*
X-39438Y-17482D01*
X-39854Y-18488D01*
X-39931Y-19075D01*
X-30935D01*
X-31012Y-18488D01*
X-31429Y-17482D01*
X-32091Y-16619D01*
X-32091Y-16619D01*
X-32091D01*
X-32693Y-15232D01*
X-32693D01*
Y-15232D01*
X-31633Y-14665D01*
X-30703Y-13903D01*
X-29941Y-12974D01*
X-29374Y-11913D01*
X-29025Y-10763D01*
X-28907Y-9567D01*
X-29025Y-8371D01*
X-29374Y-7220D01*
X-29941Y-6160D01*
X-30703Y-5231D01*
X-31633Y-4468D01*
X-32693Y-3902D01*
X-32091Y-2515D01*
X-32091Y-2515D01*
X-32091D01*
X-31429Y-1652D01*
X-31012Y-646D01*
X-30935Y-59D01*
D02*
G37*
G36*
X-35039Y16565D02*
X-35827D01*
X-37023Y16447D01*
X-38173Y16098D01*
X-39233Y15531D01*
X-40163Y14769D01*
X-40925Y13840D01*
X-41492Y12780D01*
X-41841Y11629D01*
X-41959Y10433D01*
X-41841Y9237D01*
X-41492Y8087D01*
X-40925Y7026D01*
X-40163Y6097D01*
X-39233Y5335D01*
X-38173Y4768D01*
X-38173Y4768D01*
X-38775Y3381D01*
X-38775Y3381D01*
X-38775D01*
X-39438Y2518D01*
X-39854Y1512D01*
X-39931Y925D01*
X-30935D01*
X-31012Y1512D01*
X-31429Y2518D01*
X-32091Y3381D01*
X-32091Y3381D01*
X-32091D01*
X-32693Y4768D01*
X-32693D01*
Y4768D01*
X-31633Y5335D01*
X-30703Y6097D01*
X-23599Y267D01*
X-12870Y-10462D01*
X-13741Y-12228D01*
X-14173Y-12171D01*
X-15201Y-12306D01*
X-16159Y-12703D01*
X-16981Y-13334D01*
X-17612Y-14156D01*
X-18009Y-15114D01*
X-18144Y-16142D01*
X-18009Y-17169D01*
X-17612Y-18127D01*
X-16981Y-18950D01*
X-16888Y-19021D01*
X-16759Y-20986D01*
X-22117Y-26344D01*
X-26378D01*
X-27406Y-26479D01*
X-28363Y-26876D01*
D01*
X-28363Y-26876D01*
X-29374Y-27220D01*
D01*
X-29941Y-26160D01*
X-30703Y-25231D01*
X-31633Y-24468D01*
X-32693Y-23902D01*
X-32091Y-22515D01*
X-32091Y-22515D01*
X-32091D01*
X-31429Y-21652D01*
X-31012Y-20646D01*
X-30935Y-20059D01*
X-39931D01*
X-39854Y-20646D01*
X-39438Y-21652D01*
X-38775Y-22515D01*
X-38775Y-22515D01*
X-38775D01*
X-38173Y-23902D01*
X-39233Y-24468D01*
X-40163Y-25231D01*
X-40925Y-26160D01*
X-41492Y-27220D01*
X-41841Y-28371D01*
X-41959Y-29567D01*
X-41841Y-30763D01*
X-41492Y-31914D01*
X-40925Y-32974D01*
X-40163Y-33903D01*
Y-35231D01*
X-40925Y-36160D01*
X-41492Y-37220D01*
X-41841Y-38371D01*
X-41959Y-39567D01*
X-41841Y-40763D01*
X-41492Y-41914D01*
X-40925Y-42974D01*
X-40163Y-43903D01*
X-39233Y-44665D01*
X-38173Y-45232D01*
X-37023Y-45581D01*
X-35827Y-45699D01*
X-35039D01*
X-33843Y-45581D01*
X-32693Y-45232D01*
X-31633Y-44665D01*
X-30703Y-43903D01*
X-29941Y-42974D01*
X-29374Y-41914D01*
X-29025Y-40763D01*
X-28907Y-39567D01*
X-29025Y-38371D01*
X-29374Y-37220D01*
X-29941Y-36160D01*
X-30703Y-35231D01*
Y-34184D01*
X-28938Y-33313D01*
X-28363Y-33754D01*
X-27406Y-34151D01*
X-26378Y-34286D01*
X-20472D01*
X-19445Y-34151D01*
X-18487Y-33754D01*
X-17664Y-33123D01*
X-17664Y-33123D01*
X-17664Y-33123D01*
X-12135Y-27593D01*
X3937D01*
X4965Y-27458D01*
X5923Y-27061D01*
X6745Y-26430D01*
X7376Y-25607D01*
X7773Y-24650D01*
X7908Y-23622D01*
X7773Y-22594D01*
X7376Y-21637D01*
X6745Y-20814D01*
X5923Y-20183D01*
X4965Y-19786D01*
X3937Y-19651D01*
X-8748D01*
X-10484Y-18320D01*
X-10688Y-18014D01*
X-10338Y-17169D01*
X-10202Y-16142D01*
X-10206Y-16112D01*
X-9227Y-15132D01*
X-8552Y-14743D01*
X-7891Y-15250D01*
X-6933Y-15647D01*
X-5906Y-15782D01*
X1969D01*
X2996Y-15647D01*
X3954Y-15250D01*
X4776Y-14619D01*
X5407Y-13796D01*
X5804Y-12839D01*
X5940Y-11811D01*
X5804Y-10783D01*
X5407Y-9826D01*
X4776Y-9003D01*
X3954Y-8372D01*
X2996Y-7975D01*
X1969Y-7840D01*
X-4261D01*
X-25342Y13241D01*
X-26164Y13872D01*
X-27122Y14269D01*
X-28150Y14404D01*
X-30404D01*
X-30703Y14769D01*
X-31633Y15531D01*
X-32693Y16098D01*
X-33843Y16447D01*
X-35039Y16565D01*
D02*
G37*
G36*
X25591Y5940D02*
X24563Y5804D01*
X23605Y5407D01*
X22783Y4776D01*
X22152Y3954D01*
X21755Y2996D01*
X21620Y1969D01*
Y-18040D01*
X1129Y-38531D01*
X498Y-39353D01*
X101Y-40311D01*
X-34Y-41339D01*
X101Y-42366D01*
X498Y-43324D01*
X1129Y-44146D01*
X1952Y-44778D01*
X2909Y-45174D01*
X3937Y-45310D01*
X4965Y-45174D01*
X5923Y-44778D01*
X6745Y-44146D01*
X28398Y-22493D01*
X29030Y-21670D01*
X29426Y-20713D01*
X29561Y-19685D01*
X29561Y-19685D01*
X29561Y-19685D01*
Y-19685D01*
Y1969D01*
X29426Y2996D01*
X29030Y3954D01*
X28398Y4776D01*
X27576Y5407D01*
X26618Y5804D01*
X25591Y5940D01*
D02*
G37*
G36*
X-68405Y-103352D02*
Y-113681D01*
X-58076D01*
X-58171Y-112474D01*
X-58569Y-110817D01*
X-59221Y-109243D01*
X-60111Y-107790D01*
X-61218Y-106494D01*
X-62514Y-105387D01*
X-63967Y-104497D01*
X-65542Y-103844D01*
X-67199Y-103447D01*
X-68405Y-103352D01*
D02*
G37*
G36*
X68405D02*
X67199Y-103447D01*
X65542Y-103844D01*
X63967Y-104497D01*
X62514Y-105387D01*
X61218Y-106494D01*
X60111Y-107790D01*
X59221Y-109243D01*
X58569Y-110817D01*
X58171Y-112474D01*
X58076Y-113681D01*
X68405D01*
Y-103352D01*
D02*
G37*
G36*
X25591Y90585D02*
X24563Y90450D01*
X24002Y90218D01*
X23605Y90053D01*
X22783Y89422D01*
X22783Y89422D01*
X12940Y79580D01*
X12309Y78757D01*
X11912Y77799D01*
X11777Y76772D01*
Y7874D01*
X11777Y7874D01*
X11777D01*
X11912Y6846D01*
X12309Y5889D01*
X12940Y5066D01*
X13762Y4435D01*
X14720Y4038D01*
X15748Y3903D01*
X16776Y4038D01*
X17733Y4435D01*
X18556Y5066D01*
X19187Y5889D01*
X19584Y6846D01*
X19719Y7874D01*
Y75127D01*
X28398Y83806D01*
X28398Y83806D01*
X29030Y84629D01*
X29194Y85025D01*
X29426Y85586D01*
X29561Y86614D01*
X29426Y87642D01*
X29030Y88600D01*
X28398Y89422D01*
X27576Y90053D01*
X26618Y90450D01*
X25591Y90585D01*
D02*
G37*
G36*
X-5000Y116761D02*
X-6158Y116647D01*
X-7271Y116309D01*
X-8297Y115761D01*
X-9196Y115023D01*
X-9934Y114124D01*
X-10482Y113098D01*
X-10820Y111984D01*
X-10934Y110827D01*
Y109646D01*
X-10820Y108488D01*
X-10482Y107375D01*
X-9934Y106349D01*
X-9196Y105450D01*
X-8297Y104712D01*
X-7271Y104163D01*
X-6158Y103826D01*
X-5000Y103712D01*
X-3842Y103826D01*
X-2729Y104163D01*
X-1703Y104712D01*
X-804Y105450D01*
X-66Y106349D01*
X159Y106770D01*
X1984Y106919D01*
X2174Y106862D01*
X2192Y106838D01*
X3015Y106207D01*
X3972Y105810D01*
X4508Y105739D01*
Y110236D01*
Y114733D01*
X3972Y114662D01*
X3015Y114266D01*
X2192Y113635D01*
X2174Y113611D01*
X1984Y113553D01*
X159Y113703D01*
X-66Y114124D01*
X-804Y115023D01*
X-1703Y115761D01*
X-2729Y116309D01*
X-3842Y116647D01*
X-5000Y116761D01*
D02*
G37*
G36*
X8971Y109744D02*
X5492D01*
Y105739D01*
X6028Y105810D01*
X6985Y106207D01*
X7808Y106838D01*
X8439Y107660D01*
X8836Y108618D01*
X8971Y109646D01*
Y109744D01*
D02*
G37*
G36*
X68405Y82185D02*
X58076D01*
X58171Y80978D01*
X58569Y79321D01*
X59221Y77747D01*
X60111Y76294D01*
X61218Y74998D01*
X62514Y73891D01*
X63967Y73001D01*
X65542Y72348D01*
X67199Y71951D01*
X68405Y71856D01*
Y82185D01*
D02*
G37*
G36*
X5492Y114733D02*
Y110728D01*
X8971D01*
Y110827D01*
X8836Y111855D01*
X8439Y112812D01*
X7808Y113635D01*
X6985Y114266D01*
X6028Y114662D01*
X5492Y114733D01*
D02*
G37*
G36*
X-58076Y82185D02*
X-68405D01*
Y71856D01*
X-67199Y71951D01*
X-65542Y72348D01*
X-63967Y73001D01*
X-62514Y73891D01*
X-61218Y74998D01*
X-60111Y76294D01*
X-59221Y77747D01*
X-58569Y79321D01*
X-58171Y80978D01*
X-58076Y82185D01*
D02*
G37*
%LPD*%
D16*
X-35433Y10433D02*
X-28150D01*
X-26378Y-30315D02*
X-20472D01*
X-13780Y-23622D01*
X3937D01*
X-5906Y-11811D02*
X1969D01*
X-28150Y10433D02*
X-5906Y-11811D01*
X15748Y7874D02*
Y76772D01*
X25591Y86614D01*
X3937Y-41339D02*
X25591Y-19685D01*
Y1969D01*
D17*
X-35433Y-19567D02*
D03*
Y-29567D02*
D03*
Y-9567D02*
D03*
Y433D02*
D03*
Y10433D02*
D03*
Y-39567D02*
D03*
D18*
X-5000Y110236D02*
D03*
X5000D02*
D03*
D19*
X-68898Y-114173D02*
D03*
X68898D02*
D03*
Y82677D02*
D03*
X-68898D02*
D03*
D20*
X51024Y-30433D02*
D03*
X61024D02*
D03*
X71024Y-40433D02*
D03*
X61024D02*
D03*
X51024D02*
D03*
D21*
X71024Y-30433D02*
D03*
D22*
X3937Y-23622D02*
D03*
X-14173Y-16142D02*
D03*
X-26378Y-30315D02*
D03*
X1969Y-11811D02*
D03*
X15748Y7874D02*
D03*
X25591Y86614D02*
D03*
Y1969D02*
D03*
X3937Y-41339D02*
D03*
M02*
