M48
;Layer_Color=9474304
;FILE_FORMAT=2:4
INCH,TZ
;TYPE=PLATED
T1F00S00C0.0098
T2F00S00C0.0315
T3F00S00C0.0354
T4F00S00C0.0402
T5F00S00C0.1378
%
T01
X-2638Y-3031
X-1417Y-1614
X197Y-1181
X394Y-2362
Y-4134
X2559Y197
X1575Y787
X2559Y8661
T02
X-500Y11024
X500
T03
X5102Y-4043
Y-3043
X6102
X7102
Y-4043
X6102
T04
X-3543Y-3957
Y-2957
Y-1957
Y-957
Y43
Y1043
T05
X-6890Y-11417
X6890
Y8268
X-6890
M30
