%FSLAX25Y25*%
%MOIN*%
G70*
G01*
G75*
%ADD10R,0.20000X0.20000*%
%ADD11R,0.31200X0.31200*%
%ADD12R,0.03543X0.03150*%
%ADD13R,0.08268X0.05512*%
%ADD14R,0.02165X0.06693*%
%ADD15R,0.06693X0.02165*%
%ADD16C,0.01969*%
%ADD17O,0.07087X0.06299*%
%ADD18O,0.05906X0.07087*%
%ADD19C,0.19685*%
%ADD20C,0.07000*%
%ADD21R,0.07000X0.07000*%
%ADD22C,0.01969*%
%ADD23C,0.01000*%
%ADD24C,0.00500*%
%ADD25C,0.00984*%
%ADD26C,0.02362*%
%ADD27C,0.00787*%
D23*
X45000Y-88583D02*
X44989Y-87584D01*
X44956Y-86585D01*
X44900Y-85588D01*
X44823Y-84592D01*
X44723Y-83597D01*
X44601Y-82606D01*
X44458Y-81617D01*
X44292Y-80632D01*
X44105Y-79651D01*
X43895Y-78674D01*
X43665Y-77702D01*
X43412Y-76735D01*
X43139Y-75774D01*
X42844Y-74819D01*
X42527Y-73872D01*
X42190Y-72931D01*
X41833Y-71999D01*
X41454Y-71074D01*
X41055Y-70158D01*
X40636Y-69251D01*
X40197Y-68354D01*
X39738Y-67466D01*
X39259Y-66589D01*
X38761Y-65723D01*
X38244Y-64868D01*
X37708Y-64025D01*
X37154Y-63194D01*
X36581Y-62375D01*
X35990Y-61570D01*
X35382Y-60777D01*
X34756Y-59999D01*
X34113Y-59234D01*
X33453Y-58484D01*
X32776Y-57749D01*
X32084Y-57029D01*
X31375Y-56324D01*
X30651Y-55636D01*
X29912Y-54963D01*
X29159Y-54308D01*
X28390Y-53669D01*
X27608Y-53047D01*
X26813Y-52443D01*
X26004Y-51857D01*
X25182Y-51288D01*
X24348Y-50739D01*
X23502Y-50207D01*
X22644Y-49695D01*
X21775Y-49202D01*
X20896Y-48728D01*
X20006Y-48274D01*
X19106Y-47840D01*
X18197Y-47426D01*
X17278Y-47032D01*
X16352Y-46659D01*
X15417Y-46306D01*
X14475Y-45974D01*
X13525Y-45663D01*
X12569Y-45374D01*
X11607Y-45105D01*
X10639Y-44858D01*
X9665Y-44633D01*
X8687Y-44429D01*
X7705Y-44247D01*
X6719Y-44087D01*
X5729Y-43949D01*
X4737Y-43833D01*
X3742Y-43739D01*
X2746Y-43666D01*
X1748Y-43617D01*
X749Y-43589D01*
X-250Y-43583D01*
X-1249Y-43600D01*
X-2247Y-43639D01*
X-3244Y-43700D01*
X-4240Y-43783D01*
X-5233Y-43888D01*
X-6224Y-44015D01*
X-7212Y-44164D01*
X-8196Y-44335D01*
X-9177Y-44528D01*
X-10153Y-44743D01*
X-11123Y-44979D01*
X-12089Y-45237D01*
X-13048Y-45516D01*
X-14001Y-45816D01*
X-14947Y-46137D01*
X-15885Y-46480D01*
X-16816Y-46843D01*
X-17739Y-47226D01*
X-18652Y-47630D01*
X-19557Y-48055D01*
X-20452Y-48499D01*
X-21337Y-48963D01*
X-22211Y-49446D01*
X-23074Y-49949D01*
X-23926Y-50471D01*
X-24767Y-51011D01*
X-25595Y-51570D01*
X-26410Y-52148D01*
X-27212Y-52743D01*
X-28001Y-53356D01*
X-28776Y-53986D01*
X-29537Y-54633D01*
X-30284Y-55298D01*
X-31015Y-55978D01*
X-31731Y-56675D01*
X-32432Y-57387D01*
X-33116Y-58115D01*
X-33785Y-58857D01*
X-34436Y-59615D01*
X-35071Y-60386D01*
X-35688Y-61172D01*
X-36288Y-61971D01*
X-36870Y-62783D01*
X-37433Y-63608D01*
X-37979Y-64445D01*
X-38505Y-65294D01*
X-39013Y-66155D01*
X-39501Y-67026D01*
X-39970Y-67909D01*
X-40419Y-68801D01*
X-40848Y-69703D01*
X-41257Y-70615D01*
X-41646Y-71535D01*
X-42014Y-72464D01*
X-42362Y-73401D01*
X-42688Y-74345D01*
X-42994Y-75296D01*
X-43278Y-76254D01*
X-43541Y-77218D01*
X-43783Y-78187D01*
X-44003Y-79162D01*
X-44201Y-80141D01*
X-44378Y-81124D01*
X-44532Y-82111D01*
X-44665Y-83101D01*
X-44776Y-84094D01*
X-44864Y-85089D01*
X-44931Y-86086D01*
X-44975Y-87084D01*
X-44997Y-88083D01*
Y-89082D01*
X-44975Y-90081D01*
X-44931Y-91079D01*
X-44864Y-92076D01*
X-44776Y-93071D01*
X-44665Y-94064D01*
X-44532Y-95054D01*
X-44378Y-96041D01*
X-44201Y-97025D01*
X-44003Y-98004D01*
X-43783Y-98978D01*
X-43541Y-99948D01*
X-43278Y-100911D01*
X-42994Y-101869D01*
X-42688Y-102820D01*
X-42362Y-103765D01*
X-42014Y-104701D01*
X-41646Y-105630D01*
X-41257Y-106550D01*
X-40848Y-107462D01*
X-40419Y-108364D01*
X-39970Y-109256D01*
X-39501Y-110139D01*
X-39013Y-111010D01*
X-38505Y-111871D01*
X-37979Y-112720D01*
X-37434Y-113557D01*
X-36870Y-114382D01*
X-36288Y-115194D01*
X-35688Y-115993D01*
X-35071Y-116779D01*
X-34437Y-117550D01*
X-33785Y-118308D01*
X-33117Y-119051D01*
X-32432Y-119778D01*
X-31732Y-120491D01*
X-31015Y-121187D01*
X-30284Y-121868D01*
X-29537Y-122532D01*
X-28777Y-123179D01*
X-28001Y-123809D01*
X-27213Y-124422D01*
X-26410Y-125018D01*
X-25595Y-125595D01*
X-24767Y-126154D01*
X-23927Y-126695D01*
X-23075Y-127216D01*
X-22211Y-127719D01*
X-21337Y-128203D01*
X-20452Y-128666D01*
X-19557Y-129111D01*
X-18653Y-129535D01*
X-17739Y-129939D01*
X-16816Y-130323D01*
X-15886Y-130685D01*
X-14947Y-131028D01*
X-14001Y-131349D01*
X-13048Y-131649D01*
X-12089Y-131929D01*
X-11124Y-132186D01*
X-10153Y-132422D01*
X-9177Y-132637D01*
X-8197Y-132830D01*
X-7213Y-133001D01*
X-6225Y-133150D01*
X-5234Y-133277D01*
X-4240Y-133382D01*
X-3244Y-133466D01*
X-2247Y-133527D01*
X-1249Y-133565D01*
X-250Y-133582D01*
X749Y-133576D01*
X1748Y-133549D01*
X2746Y-133499D01*
X3742Y-133427D01*
X4737Y-133333D01*
X5729Y-133217D01*
X6718Y-133078D01*
X7705Y-132918D01*
X8687Y-132736D01*
X9665Y-132533D01*
X10638Y-132307D01*
X11607Y-132060D01*
X12569Y-131792D01*
X13525Y-131502D01*
X14475Y-131191D01*
X15417Y-130859D01*
X16352Y-130507D01*
X17278Y-130133D01*
X18196Y-129739D01*
X19106Y-129325D01*
X20006Y-128891D01*
X20895Y-128437D01*
X21775Y-127963D01*
X22644Y-127470D01*
X23502Y-126958D01*
X24348Y-126427D01*
X25182Y-125877D01*
X26004Y-125309D01*
X26813Y-124722D01*
X27608Y-124118D01*
X28390Y-123497D01*
X29159Y-122858D01*
X29912Y-122202D01*
X30651Y-121529D01*
X31375Y-120841D01*
X32084Y-120136D01*
X32776Y-119416D01*
X33453Y-118681D01*
X34113Y-117931D01*
X34756Y-117166D01*
X35382Y-116388D01*
X35990Y-115596D01*
X36581Y-114790D01*
X37154Y-113971D01*
X37708Y-113140D01*
X38244Y-112297D01*
X38761Y-111442D01*
X39259Y-110576D01*
X39738Y-109699D01*
X40197Y-108812D01*
X40636Y-107914D01*
X41055Y-107007D01*
X41454Y-106091D01*
X41833Y-105167D01*
X42191Y-104234D01*
X42528Y-103293D01*
X42844Y-102346D01*
X43139Y-101391D01*
X43412Y-100430D01*
X43665Y-99464D01*
X43896Y-98492D01*
X44105Y-97515D01*
X44292Y-96533D01*
X44458Y-95548D01*
X44601Y-94559D01*
X44723Y-93568D01*
X44823Y-92574D01*
X44900Y-91578D01*
X44956Y-90580D01*
X44989Y-89581D01*
X45000Y-88583D01*
D24*
X5907Y78741D02*
X5822Y79739D01*
X5569Y80708D01*
X5157Y81621D01*
X4596Y82451D01*
X3902Y83174D01*
X3097Y83770D01*
X2203Y84221D01*
X1245Y84514D01*
X251Y84641D01*
X-750Y84599D01*
X-1729Y84388D01*
X-2659Y84014D01*
X-3512Y83489D01*
X-4264Y82827D01*
X-4893Y82048D01*
X-5382Y81173D01*
X-5715Y80229D01*
X-5885Y79241D01*
Y78240D01*
X-5715Y77252D01*
X-5382Y76308D01*
X-4893Y75433D01*
X-4264Y74654D01*
X-3512Y73992D01*
X-2659Y73467D01*
X-1729Y73093D01*
X-750Y72882D01*
X251Y72840D01*
X1245Y72967D01*
X2203Y73260D01*
X3097Y73711D01*
X3902Y74307D01*
X4596Y75030D01*
X5157Y75860D01*
X5569Y76773D01*
X5822Y77742D01*
X5907Y78741D01*
X-47243Y53150D02*
X-47328Y54148D01*
X-47580Y55117D01*
X-47993Y56030D01*
X-48554Y56860D01*
X-49247Y57584D01*
X-50053Y58179D01*
X-50947Y58630D01*
X-51905Y58924D01*
X-52899Y59051D01*
X-53900Y59008D01*
X-54879Y58797D01*
X-55808Y58424D01*
X-56661Y57898D01*
X-57413Y57237D01*
X-58043Y56457D01*
X-58531Y55583D01*
X-58865Y54638D01*
X-59034Y53651D01*
Y52649D01*
X-58865Y51662D01*
X-58531Y50717D01*
X-58043Y49843D01*
X-57413Y49063D01*
X-56661Y48401D01*
X-55808Y47876D01*
X-54879Y47503D01*
X-53900Y47291D01*
X-52899Y47249D01*
X-51905Y47376D01*
X-50947Y47670D01*
X-50053Y48121D01*
X-49247Y48716D01*
X-48554Y49439D01*
X-47993Y50270D01*
X-47580Y51182D01*
X-47328Y52152D01*
X-47243Y53150D01*
X59056D02*
X58971Y54148D01*
X58719Y55117D01*
X58306Y56030D01*
X57745Y56860D01*
X57052Y57584D01*
X56247Y58179D01*
X55352Y58630D01*
X54394Y58924D01*
X53401Y59051D01*
X52400Y59008D01*
X51420Y58797D01*
X50491Y58424D01*
X49638Y57898D01*
X48886Y57237D01*
X48256Y56457D01*
X47768Y55583D01*
X47434Y54638D01*
X47265Y53651D01*
Y52649D01*
X47434Y51662D01*
X47768Y50717D01*
X48256Y49843D01*
X48886Y49063D01*
X49638Y48401D01*
X50491Y47876D01*
X51420Y47503D01*
X52400Y47291D01*
X53401Y47249D01*
X54394Y47376D01*
X55352Y47670D01*
X56247Y48121D01*
X57052Y48716D01*
X57745Y49439D01*
X58306Y50270D01*
X58719Y51182D01*
X58971Y52152D01*
X59056Y53150D01*
X5907Y23622D02*
X5822Y24621D01*
X5569Y25590D01*
X5157Y26503D01*
X4596Y27333D01*
X3902Y28056D01*
X3097Y28652D01*
X2203Y29103D01*
X1245Y29396D01*
X251Y29523D01*
X-750Y29481D01*
X-1729Y29270D01*
X-2659Y28896D01*
X-3512Y28371D01*
X-4264Y27709D01*
X-4893Y26930D01*
X-5382Y26055D01*
X-5715Y25111D01*
X-5885Y24123D01*
Y23122D01*
X-5715Y22134D01*
X-5382Y21190D01*
X-4893Y20315D01*
X-4264Y19536D01*
X-3512Y18874D01*
X-2659Y18349D01*
X-1729Y17975D01*
X-750Y17764D01*
X251Y17721D01*
X1245Y17849D01*
X2203Y18142D01*
X3097Y18593D01*
X3902Y19189D01*
X4596Y19912D01*
X5157Y20742D01*
X5569Y21655D01*
X5822Y22624D01*
X5907Y23622D01*
X-79724Y15157D02*
X-42913D01*
X-79724Y-44291D02*
Y15157D01*
X-42913Y-44291D02*
Y15157D01*
X-79724Y-44291D02*
X-42913D01*
X56102Y-13780D02*
Y-1969D01*
X50197Y-13780D02*
X56102D01*
X50197D02*
Y-1969D01*
X56102D01*
X11811Y66929D02*
Y90551D01*
X-11811D02*
X11811D01*
X-11811Y66929D02*
Y90551D01*
Y66929D02*
X11811D01*
X-41339Y41339D02*
Y64961D01*
X-64961D02*
X-41339D01*
X-64961Y41339D02*
Y64961D01*
Y41339D02*
X-41339D01*
X64961D02*
Y64961D01*
X41339D02*
X64961D01*
X41339Y41339D02*
Y64961D01*
Y41339D02*
X64961D01*
X11811Y11811D02*
Y35433D01*
X-11811D02*
X11811D01*
X-11811Y11811D02*
Y35433D01*
Y11811D02*
X11811D01*
X76024Y-45433D02*
Y-25433D01*
X46024D02*
X76024D01*
X46024Y-45433D02*
Y-25433D01*
Y-45433D02*
X76024D01*
X-18701Y-33465D02*
Y-21654D01*
X-24606Y-33465D02*
X-18701D01*
X-24606D02*
Y-21654D01*
X-18701D01*
D25*
X-5906Y-34055D02*
X-6644Y-33629D01*
Y-34481D01*
X-5906Y-34055D01*
D26*
X1575Y-25197D02*
X1130Y-24273D01*
X131Y-24045D01*
X-670Y-24684D01*
Y-25709D01*
X131Y-26348D01*
X1130Y-26120D01*
X1575Y-25197D01*
D27*
X-3543Y-29134D02*
X19291D01*
X-3543Y-6299D02*
X19291D01*
X-3543Y-29134D02*
Y-6299D01*
X19291Y-29134D02*
Y-6299D01*
X11812Y114567D02*
X15748D01*
Y117191D01*
X11812Y121126D02*
Y118503D01*
X15748D01*
Y121126D01*
X13780Y118503D02*
Y119815D01*
X11812Y122438D02*
X15748D01*
Y124406D01*
X15092Y125062D01*
X12468D01*
X11812Y124406D01*
Y122438D01*
X15748Y126374D02*
Y127686D01*
Y127030D01*
X11812D01*
X12468Y126374D01*
X-46982Y21259D02*
X-48294D01*
X-47638D01*
Y17979D01*
X-48294Y17323D01*
X-48950D01*
X-49606Y17979D01*
X-45671Y17323D02*
X-44359D01*
X-45015D01*
Y21259D01*
X-45671Y20603D01*
X-39502Y-125198D02*
X-40814D01*
X-40158D01*
Y-128478D01*
X-40814Y-129134D01*
X-41470D01*
X-42126Y-128478D01*
X-35566Y-129134D02*
X-38190D01*
X-35566Y-126510D01*
Y-125854D01*
X-36222Y-125198D01*
X-37534D01*
X-38190Y-125854D01*
X48031Y-10236D02*
X44096D01*
Y-8268D01*
X44752Y-7612D01*
X46064D01*
X46720Y-8268D01*
Y-10236D01*
Y-8924D02*
X48031Y-7612D01*
Y-6301D02*
Y-4989D01*
Y-5644D01*
X44096D01*
X44752Y-6301D01*
X-2494Y63910D02*
X-3150Y64566D01*
X-4462D01*
X-5118Y63910D01*
Y63254D01*
X-4462Y62598D01*
X-3150D01*
X-2494Y61942D01*
Y61286D01*
X-3150Y60630D01*
X-4462D01*
X-5118Y61286D01*
X-1182Y64566D02*
Y60630D01*
X129Y61942D01*
X1441Y60630D01*
Y64566D01*
X2753Y60630D02*
X4065D01*
X3409D01*
Y64566D01*
X2753Y63910D01*
X-55644Y37925D02*
X-56300Y38581D01*
X-57612D01*
X-58268Y37925D01*
Y37269D01*
X-57612Y36614D01*
X-56300D01*
X-55644Y35958D01*
Y35302D01*
X-56300Y34646D01*
X-57612D01*
X-58268Y35302D01*
X-54332Y38581D02*
Y34646D01*
X-53020Y35958D01*
X-51708Y34646D01*
Y38581D01*
X-47772Y34646D02*
X-50396D01*
X-47772Y37269D01*
Y37925D01*
X-48428Y38581D01*
X-49740D01*
X-50396Y37925D01*
X51443D02*
X50787Y38581D01*
X49475D01*
X48819Y37925D01*
Y37269D01*
X49475Y36614D01*
X50787D01*
X51443Y35958D01*
Y35302D01*
X50787Y34646D01*
X49475D01*
X48819Y35302D01*
X52755Y38581D02*
Y34646D01*
X54066Y35958D01*
X55379Y34646D01*
Y38581D01*
X56690Y37925D02*
X57346Y38581D01*
X58658D01*
X59314Y37925D01*
Y37269D01*
X58658Y36614D01*
X58002D01*
X58658D01*
X59314Y35958D01*
Y35302D01*
X58658Y34646D01*
X57346D01*
X56690Y35302D01*
X-2101Y9185D02*
X-2757Y9841D01*
X-4068D01*
X-4724Y9185D01*
Y8529D01*
X-4068Y7873D01*
X-2757D01*
X-2101Y7217D01*
Y6561D01*
X-2757Y5906D01*
X-4068D01*
X-4724Y6561D01*
X-789Y9841D02*
Y5906D01*
X523Y7217D01*
X1835Y5906D01*
Y9841D01*
X5115Y5906D02*
Y9841D01*
X3147Y7873D01*
X5771D01*
X-13386Y3148D02*
X-10762D01*
Y2492D01*
X-13386Y-132D01*
Y-787D01*
X-10762D01*
X-9450D02*
X-8138D01*
X-8794D01*
Y3148D01*
X-9450Y2492D01*
X-21392Y-16012D02*
X-22048Y-15356D01*
X-23360D01*
X-24016Y-16012D01*
Y-18635D01*
X-23360Y-19291D01*
X-22048D01*
X-21392Y-18635D01*
X-20080Y-19291D02*
X-18768D01*
X-19424D01*
Y-15356D01*
X-20080Y-16012D01*
X39765Y-37140D02*
Y-38452D01*
Y-37796D01*
X43045D01*
X43701Y-38452D01*
Y-39108D01*
X43045Y-39764D01*
X40421Y-35828D02*
X39765Y-35172D01*
Y-33860D01*
X40421Y-33204D01*
X41077D01*
X41733Y-33860D01*
Y-34516D01*
Y-33860D01*
X42389Y-33204D01*
X43045D01*
X43701Y-33860D01*
Y-35172D01*
X43045Y-35828D01*
X50394Y68898D02*
X52362Y70865D01*
X50394Y72833D01*
X53673Y68898D02*
X55641Y70865D01*
X53673Y72833D01*
X-54331Y68898D02*
X-56299Y70865D01*
X-54331Y72833D01*
X-50396Y68898D02*
X-52364Y70865D01*
X-50396Y72833D01*
X-10630Y39370D02*
Y43306D01*
X-8662D01*
X-8006Y42650D01*
Y41338D01*
X-8662Y40682D01*
X-10630D01*
X-9318D02*
X-8006Y39370D01*
X-6038D02*
X-4726D01*
X-4070Y40026D01*
Y41338D01*
X-4726Y41994D01*
X-6038D01*
X-6694Y41338D01*
Y40026D01*
X-6038Y39370D01*
X-2103Y42650D02*
Y41994D01*
X-2758D01*
X-1446D01*
X-2103D01*
Y40026D01*
X-1446Y39370D01*
X1177Y41994D02*
X2489D01*
X3145Y41338D01*
Y39370D01*
X1177D01*
X521Y40026D01*
X1177Y40682D01*
X3145D01*
X5113Y42650D02*
Y41994D01*
X4457D01*
X5769D01*
X5113D01*
Y40026D01*
X5769Y39370D01*
X9705D02*
X8393D01*
X7737Y40026D01*
Y41338D01*
X8393Y41994D01*
X9705D01*
X10361Y41338D01*
Y40682D01*
X7737D01*
X-8268Y94488D02*
Y98424D01*
X-6300D01*
X-5644Y97768D01*
Y96456D01*
X-6300Y95800D01*
X-8268D01*
X-3676Y94488D02*
X-2364D01*
X-1708Y95144D01*
Y96456D01*
X-2364Y97112D01*
X-3676D01*
X-4332Y96456D01*
Y95144D01*
X-3676Y94488D01*
X-396Y97112D02*
Y95144D01*
X260Y94488D01*
X916Y95144D01*
X1572Y94488D01*
X2228Y95144D01*
Y97112D01*
X5507Y94488D02*
X4196D01*
X3540Y95144D01*
Y96456D01*
X4196Y97112D01*
X5507D01*
X6163Y96456D01*
Y95800D01*
X3540D01*
X7475Y97112D02*
Y94488D01*
Y95800D01*
X8131Y96456D01*
X8787Y97112D01*
X9443D01*
X46457Y-51575D02*
Y-48951D01*
X47769Y-47639D01*
X49081Y-48951D01*
Y-51575D01*
Y-49607D01*
X46457D01*
X50392Y-51575D02*
X51704D01*
X51048D01*
Y-47639D01*
X50392Y-48295D01*
X57608Y-51575D02*
Y-48951D01*
X58920Y-47639D01*
X60232Y-48951D01*
Y-51575D01*
Y-49607D01*
X57608D01*
X61544Y-48295D02*
X62200Y-47639D01*
X63512D01*
X64167Y-48295D01*
Y-50919D01*
X63512Y-51575D01*
X62200D01*
X61544Y-50919D01*
Y-48295D01*
X69415D02*
X70071Y-47639D01*
X71383D01*
X72039Y-48295D01*
Y-48951D01*
X71383Y-49607D01*
X70727D01*
X71383D01*
X72039Y-50263D01*
Y-50919D01*
X71383Y-51575D01*
X70071D01*
X69415Y-50919D01*
X73351Y-47639D02*
Y-50263D01*
X74663Y-51575D01*
X75975Y-50263D01*
Y-47639D01*
X46850Y-23228D02*
Y-20605D01*
X48162Y-19293D01*
X49474Y-20605D01*
Y-23228D01*
Y-21260D01*
X46850D01*
X53410Y-23228D02*
X50786D01*
X53410Y-20605D01*
Y-19949D01*
X52754Y-19293D01*
X51442D01*
X50786Y-19949D01*
X58658Y-23228D02*
Y-20605D01*
X59970Y-19293D01*
X61281Y-20605D01*
Y-23228D01*
Y-21260D01*
X58658D01*
X62593Y-19949D02*
X63249Y-19293D01*
X64561D01*
X65217Y-19949D01*
Y-20605D01*
X64561Y-21260D01*
X63905D01*
X64561D01*
X65217Y-21916D01*
Y-22572D01*
X64561Y-23228D01*
X63249D01*
X62593Y-22572D01*
X73089Y-19949D02*
X72433Y-19293D01*
X71121D01*
X70465Y-19949D01*
Y-22572D01*
X71121Y-23228D01*
X72433D01*
X73089Y-22572D01*
Y-21260D01*
X71777D01*
M02*
